<?xml version="1.0" standalone="no"?>
<!DOCTYPE svg PUBLIC "-//W3C//DTD SVG 20010904//EN"
 "http://www.w3.org/TR/2001/REC-SVG-20010904/DTD/svg10.dtd">
<svg version="1.0" xmlns="http://www.w3.org/2000/svg"
 width="225.000000pt" height="225.000000pt" viewBox="0 0 225.000000 225.000000"
 preserveAspectRatio="xMidYMid meet">
<metadata>
Created by potrace 1.16, written by Peter Selinger 2001-2019
</metadata>
<g transform="translate(0.000000,225.000000) scale(0.100000,-0.100000)"
fill="white" stroke="black">
<path d="M369 1943 c-13 -16 -12 -17 4 -4 9 7 17 15 17 17 0 8 -8 3 -21 -13z"/>
<path d="M1262 1651 c-8 -4 -12 -19 -10 -32 3 -22 8 -24 65 -27 l62 -3 11 -38
c5 -20 13 -51 16 -69 l7 -32 -246 0 c-233 0 -247 1 -257 19 -13 26 -13 31 5
31 28 0 65 23 65 41 0 25 -16 33 -85 40 -33 4 -83 10 -111 14 -61 9 -94 -5
-94 -40 0 -30 42 -63 91 -71 36 -6 69 -36 69 -64 0 -20 -93 -151 -104 -146
-191 82 -397 6 -483 -179 -23 -50 -27 -74 -28 -140 0 -69 5 -89 31 -145 38
-79 97 -140 172 -177 50 -25 68 -28 152 -28 85 0 101 3 153 30 75 37 149 118
176 190 12 31 21 65 21 75 0 17 7 20 45 20 32 0 45 -4 45 -14 0 -36 110 -99
141 -80 16 9 29 -16 22 -44 -9 -38 13 -52 82 -52 68 0 91 14 80 50 -5 15 -15
20 -39 20 -25 0 -36 7 -50 31 -16 28 -17 32 -2 64 19 39 20 75 5 109 -11 23
-4 34 87 145 67 82 101 116 106 107 5 -8 -7 -28 -31 -54 -21 -22 -52 -67 -67
-99 -25 -51 -29 -69 -29 -148 0 -77 4 -98 26 -145 39 -82 90 -135 167 -172 60
-30 75 -33 157 -33 82 0 97 3 157 33 77 38 130 92 167 171 22 47 26 70 26 146
0 77 -4 98 -27 147 -73 156 -252 239 -418 194 -30 -8 -56 -13 -57 -12 -1 1
-18 67 -38 146 -44 177 -51 195 -81 215 -25 16 -129 21 -152 6z m172 -280 c3
-5 -46 -72 -110 -150 l-116 -141 -43 0 -43 0 -70 128 c-38 70 -75 137 -81 150
l-12 22 235 0 c129 0 237 -4 240 -9z m-453 -183 c76 -139 77 -141 60 -169 -14
-25 -22 -29 -58 -29 -36 0 -43 3 -43 20 0 39 -40 123 -81 172 l-41 49 37 55
c20 31 39 53 43 50 3 -4 41 -70 83 -148z m-325 41 c24 -6 47 -15 50 -20 8 -14
-99 -169 -118 -169 -9 0 -30 -12 -47 -26 -24 -20 -31 -34 -31 -60 0 -74 84
-111 136 -59 23 23 32 25 126 25 l100 0 -7 -27 c-13 -57 -48 -114 -92 -153
-181 -159 -464 -27 -464 215 0 185 169 319 347 274z m1146 -17 c54 -23 110
-77 140 -135 18 -33 23 -59 23 -122 0 -70 -4 -87 -30 -133 -32 -59 -66 -91
-129 -125 -58 -31 -183 -30 -242 1 -65 33 -101 69 -128 125 -33 67 -42 132
-26 196 13 54 68 147 80 134 4 -4 15 -30 25 -58 9 -27 33 -66 51 -85 19 -20
34 -46 34 -59 0 -31 52 -81 85 -81 34 0 85 50 85 84 0 42 -41 80 -89 81 -54 1
-82 30 -109 112 l-21 63 47 15 c59 19 145 13 204 -13z m-946 -164 c9 -27 14
-51 11 -54 -2 -3 -50 -3 -106 -2 l-101 3 58 88 57 87 32 -36 c18 -20 40 -59
49 -86z m336 -55 c10 -9 18 -28 18 -42 l0 -26 -19 31 c-22 37 -39 45 -63 32
-22 -11 -23 -31 -2 -63 19 -29 9 -33 -18 -8 -22 20 -23 42 -2 71 18 26 60 29
86 5z"/>
<path d="M1939 373 c-13 -16 -12 -17 4 -4 16 13 21 21 13 21 -2 0 -10 -8 -17
-17z"/>
<path d="M1869 303 c-13 -16 -12 -17 4 -4 16 13 21 21 13 21 -2 0 -10 -8 -17
-17z"/>
</g>
</svg>
