<?xml version="1.0" encoding="utf-8"?>
<!-- Generator: Adobe Illustrator 25.2.1, SVG Export Plug-In . SVG Version: 6.00 Build 0)  -->
<svg version="1.1" id="Layer_1" xmlns="http://www.w3.org/2000/svg" xmlns:xlink="http://www.w3.org/1999/xlink" x="0px" y="0px"
	 viewBox="0 0 127.7 168.7" style="enable-background:new 0 0 127.7 168.7;" xml:space="preserve">
<style type="text/css">
</style>
<g fill="white" stroke="white" transform="translate(0.000000,164.000000) scale(0.100000,-0.100000)">
	<path class="st0" d="M532.7,1625.6c-120.5-33.5-222.1-119.4-278.7-234.7c-28.3-58.7-29.3-63.9-32.5-275.5l-3.1-216.9l-41.9-5.2
		c-87-11.5-160.3-92.2-171.8-189.6c-4.2-29.3-5.2-176-3.1-325.8C4.7,123.2,5.7,102.2,26.7,63.5C52.9,15.3,73.8-5.7,122-29.8
		c29.3-14.7,92.2-16.8,516.5-16.8s487.2,2.1,516.5,16.8c48.2,24.1,69.1,45.1,95.3,93.2c21,38.8,22,59.7,25.1,314.3
		c2.1,149.8,1,296.5-3.1,325.8c-11.5,97.4-84.9,178.1-171.8,189.6l-41.9,5.2l-3.1,216.9c-3.1,211.6-4.2,216.9-32.5,275.5
		C930.9,1578.5,723.4,1678,532.7,1625.6z M750.7,1393c31.4-19.9,57.6-47.1,73.3-76.5c23-43,24.1-57.6,24.1-233.6V896.4H637.5H428
		l3.1,197c3.1,193.8,3.1,198,31.4,239.9c17.8,27.2,47.1,52.4,83.8,70.2C617.6,1440.2,679.4,1437,750.7,1393z M689.9,567.4
		c56.6-29.3,70.2-110,27.2-157.2c-24.1-26.2-26.2-36.7-26.2-125.7c0-104.8-7.3-121.5-52.4-121.5c-45.1,0-52.4,16.8-52.4,121.5
		c0,89.1-2.1,99.5-26.2,125.7C482.4,494.1,586.2,620.9,689.9,567.4z"/>
</g>
</svg>
