<?xml version="1.0" encoding="utf-8"?>
<!-- Generator: Adobe Illustrator 25.2.1, SVG Export Plug-In . SVG Version: 6.00 Build 0)  -->
<svg version="1.1" id="Layer_1" xmlns="http://www.w3.org/2000/svg" xmlns:xlink="http://www.w3.org/1999/xlink" x="0px" y="0px"
	 viewBox="0 0 135.7 168.6" style="enable-background:new 0 0 135.7 168.6;" xml:space="preserve">
<style type="text/css">
	.st0{fill:#FFFFFF;}
	.st1{fill:none;stroke:#FFFFFF;stroke-width:7;stroke-linecap:round;stroke-miterlimit:10;}
</style>
<g transform="translate(0.000000,225.000000) scale(0.100000,-0.100000)">
	<path d="M506,2244.3c-68-21-114-102-100-175l0,0c3.1-18.3-11-35-29.5-35H346h-36.1c-16.5,0-29.9-13.4-29.9-29.9v-60.1v-60.1
		c0-16.5,13.4-29.9,29.9-29.9H555h245.1c16.5,0,29.9,13.4,29.9,29.9v60.1v60.1c0,16.5-13.4,29.9-29.9,29.9H764h-31.5
		c-18.5,0-32.6,16.7-29.5,35l1,6c8,51-19,117-61,147C608,2247.3,547,2257.3,506,2244.3z"/>
	<path d="M1110,1886.8c0,20.7-16.8,37.5-37.5,37.5h-175c-20.7,0-37.5-16.8-37.5-37.5v-7.5v-7.5c0-20.7-16.8-37.5-37.5-37.5h-535
		c-20.7,0-37.5,16.8-37.5,37.5v7.5v7.5c0,20.7-16.8,37.5-37.5,37.5H125H37.5c-20.7,0-37.5-16.8-37.5-37.5v-642.5V601.8
		c0-20.7,16.8-37.5,37.5-37.5h1035c20.7,0,37.5,16.8,37.5,37.5V1886.8z"/>
</g>
<g>
	<g>
		<path d="M73.7,143c-0.9-0.5-1.6-1.3-1.9-2.3c-0.3-1-0.2-2.1,0.3-3c0.7-1.3,2-2.1,3.5-2.1c0.6,0,1.3,0.2,1.9,0.5l17.6,9.5
			l31.8-58.1c0.7-1.2,2-2,3.4-2c0.7,0,1.4,0.2,2,0.5c0.9,0.5,1.6,1.4,1.8,2.4s0.1,2.1-0.4,3l-35.6,64.7L73.7,143z"/>
		<path class="st0" d="M130.3,87c0.4,0,0.8,0.1,1.2,0.3c1.2,0.7,1.6,2.2,0.9,3.3l-34.9,63.5l-23.1-12.4c-1.2-0.6-1.6-2.1-1-3.3
			c0.4-0.8,1.3-1.3,2.2-1.3c0.4,0,0.8,0.1,1.2,0.3l18.9,10.2l32.5-59.4C128.6,87.4,129.5,87,130.3,87 M130.3,84L130.3,84
			c-1.9,0-3.7,1-4.7,2.7l0,0l0,0l-31.1,56.8l-16.3-8.8c-0.8-0.4-1.7-0.7-2.6-0.7c-2,0-3.8,1.1-4.8,2.9c-0.7,1.3-0.8,2.7-0.4,4.1
			c0.4,1.4,1.4,2.5,2.6,3.2l23.1,12.4l2.6,1.4l1.4-2.6L135,92.1c0.7-1.2,0.9-2.7,0.5-4.1c-0.4-1.4-1.3-2.6-2.5-3.3
			C132.2,84.2,131.3,84,130.3,84L130.3,84z"/>
	</g>
</g>
<line class="st1" x1="17.4" y1="145.3" x2="47.6" y2="145.3"/>
<line class="st1" x1="17.4" y1="117" x2="89.6" y2="117"/>
<line class="st1" x1="17.4" y1="88.8" x2="93.6" y2="88.8"/>
<line class="st1" x1="17.4" y1="60.6" x2="93.6" y2="60.6"/>
</svg>
