<?xml version="1.0" standalone="no"?>
<!DOCTYPE svg PUBLIC "-//W3C//DTD SVG 20010904//EN"
 "http://www.w3.org/TR/2001/REC-SVG-20010904/DTD/svg10.dtd">
<svg version="1.0" xmlns="http://www.w3.org/2000/svg"
 width="2893.000000pt" height="1482.000000pt" viewBox="0 0 2893.000000 1482.000000"
 preserveAspectRatio="xMidYMid meet">
<metadata>
Created by potrace 1.16, written by Peter Selinger 2001-2019
</metadata>
<g transform="translate(0.000000,1482.000000) scale(0.100000,-0.100000)"
fill="#000000" stroke="none">
<path d="M20179 12339 c-140 -91 -503 -483 -868 -939 -91 -113 -205 -254 -255
-314 l-90 -109 -255 7 c-516 13 -771 54 -859 136 -12 11 -33 20 -47 20 -39 0
-101 -36 -132 -77 -24 -31 -28 -46 -28 -101 l0 -64 75 -71 c90 -87 183 -138
311 -172 133 -35 242 -45 497 -45 122 0 222 -2 222 -5 0 -3 -33 -56 -74 -119
-152 -233 -437 -739 -578 -1026 -39 -80 -100 -212 -134 -295 l-62 -150 -139
-119 c-162 -139 -387 -316 -401 -316 -29 0 -43 178 -27 350 32 338 30 381 -23
485 -71 141 -290 275 -446 275 -76 -1 -139 -26 -278 -110 -290 -177 -666 -462
-1047 -792 -99 -87 -181 -154 -181 -149 0 19 210 422 279 536 145 238 284 426
418 566 l83 86 -103 70 c-210 145 -339 183 -445 132 -55 -27 -265 -228 -348
-334 -117 -150 -215 -328 -281 -507 l-28 -77 -150 -115 c-348 -268 -467 -357
-551 -413 -242 -163 -481 -286 -671 -347 -183 -59 -264 -47 -294 41 -18 55 -6
270 21 363 23 82 104 260 117 260 5 0 72 -23 148 -51 183 -67 247 -73 372 -34
229 71 450 222 604 413 117 145 142 250 86 364 -64 131 -356 348 -547 406
-251 77 -439 5 -715 -273 -162 -163 -277 -345 -358 -565 -93 -252 -141 -586
-103 -725 23 -87 56 -137 150 -230 101 -100 192 -155 326 -196 106 -33 264
-33 370 0 216 66 575 291 919 576 90 74 166 134 167 132 2 -2 -3 -39 -10 -83
-53 -305 -35 -343 236 -486 194 -102 250 -124 299 -114 43 8 64 29 212 220
227 291 393 459 720 733 417 348 651 497 713 455 46 -30 50 -165 15 -480 -23
-211 -27 -404 -10 -467 27 -101 228 -225 363 -225 71 0 110 23 247 143 61 54
113 96 116 94 2 -3 -24 -96 -57 -208 -174 -582 -253 -1013 -254 -1384 l-1
-200 29 -58 c51 -105 155 -157 313 -157 136 0 294 52 419 138 100 68 97 65
444 567 325 471 461 645 669 859 459 470 951 686 1676 737 455 31 912 -60
1330 -265 294 -145 513 -304 740 -537 395 -406 634 -883 727 -1452 30 -180 32
-602 5 -777 -93 -592 -348 -1103 -756 -1509 -524 -523 -1231 -803 -1966 -778
-516 17 -973 164 -1397 447 -123 82 -328 244 -328 259 0 3 65 37 145 75 425
202 687 383 1441 997 166 135 314 255 329 266 l28 20 -201 154 c-157 120 -198
156 -190 167 6 7 79 68 162 135 324 263 456 377 576 497 114 115 255 280 255
300 0 6 -590 552 -647 598 -13 11 -26 -1 -88 -85 -408 -545 -760 -882 -1283
-1233 -133 -89 -138 -93 -120 -110 10 -9 118 -101 240 -205 l222 -187 -38 -77
c-58 -113 -148 -229 -311 -395 -264 -270 -571 -527 -1010 -846 -85 -62 -155
-116 -155 -120 0 -17 198 -230 305 -327 835 -763 1991 -1029 3060 -706 379
114 761 315 1068 559 128 102 399 373 498 499 762 966 908 2254 380 3350 -482
1002 -1445 1675 -2551 1785 -169 17 -493 15 -654 -4 -680 -81 -1259 -364
-1751 -856 -248 -248 -436 -505 -688 -941 -155 -269 -221 -373 -289 -454 -48
-58 -115 -106 -129 -93 -27 28 348 1302 518 1758 188 504 471 1053 904 1750
133 214 132 214 419 240 66 6 230 24 365 40 1189 140 1797 164 2300 90 135
-20 301 -59 384 -90 141 -54 152 17 22 137 -234 214 -651 294 -1531 294 -440
0 -831 -21 -1270 -66 -290 -31 -271 -30 -259 -14 6 8 109 149 229 314 120 165
224 306 231 314 10 11 18 9 46 -12 36 -27 98 -61 102 -55 2 2 38 107 81 233
57 165 77 237 72 256 -9 35 -167 202 -211 223 -51 24 -77 20 -147 -25z m-6025
-2676 c-19 -85 -29 -114 -61 -174 -100 -192 -322 -363 -489 -377 -42 -3 -64
-1 -64 6 0 22 127 178 229 281 118 119 218 203 306 256 72 43 88 45 79 8z"/>
<path d="M12515 12030 c-717 -45 -1089 -100 -1820 -265 -589 -134 -992 -263
-1695 -545 -538 -216 -814 -307 -1268 -419 -538 -133 -1191 -246 -2026 -351
-377 -47 -403 -49 -742 -55 l-351 -7 -37 77 c-46 98 -160 217 -251 262 -118
59 -158 68 -305 68 -74 -1 -175 -4 -223 -9 l-88 -8 7 -98 7 -98 -99 -6 c-170
-10 -214 -21 -253 -60 -29 -29 -35 -43 -39 -88 -5 -65 23 -113 81 -142 35 -17
50 -17 180 -8 78 5 144 8 146 6 10 -9 18 -199 9 -205 -5 -3 -67 -9 -136 -13
-156 -9 -200 -26 -231 -90 -25 -50 -26 -75 -7 -119 32 -75 87 -97 221 -86 50
4 111 8 136 8 l47 1 7 -95 7 -95 52 0 c114 0 309 22 373 41 38 12 92 34 120
51 109 61 219 187 259 295 9 27 20 52 24 56 4 5 173 12 376 17 371 9 521 19
974 65 811 83 1491 199 2030 347 337 92 555 167 1092 374 516 198 801 293
1143 378 184 46 367 87 371 83 2 -2 -52 -43 -119 -92 -784 -574 -1352 -1340
-1567 -2116 -17 -63 -33 -120 -36 -127 -2 -9 -30 1 -91 32 -107 53 -337 145
-453 179 -794 240 -1620 172 -2350 -193 -1233 -614 -1927 -1954 -1719 -3317
168 -1108 921 -2053 1965 -2466 821 -326 1732 -296 2530 83 400 189 809 501
1187 904 188 200 344 381 683 791 380 459 544 646 764 865 351 351 665 587
1025 770 196 100 356 162 655 254 491 151 910 231 1180 224 l114 -3 -144 -131
c-303 -274 -605 -524 -995 -824 -223 -171 -620 -486 -823 -653 -74 -60 -135
-107 -137 -105 -11 10 194 465 281 623 75 136 193 320 265 412 52 66 58 87 35
119 -22 29 -130 24 -226 -11 -337 -123 -658 -379 -938 -749 -255 -336 -558
-959 -761 -1561 -69 -206 -86 -296 -78 -411 22 -308 205 -534 434 -534 l43 0
-2 142 c-3 139 -2 145 25 200 30 61 75 106 138 138 22 12 128 51 237 89 671
233 1294 480 1775 704 243 114 414 288 393 401 -16 84 -181 283 -271 326 -45
22 -66 25 -203 28 -84 2 -198 -1 -255 -8 -56 -6 -129 -14 -162 -16 l-60 -5 70
66 c112 107 251 218 544 434 502 372 762 581 926 746 142 142 261 288 279 343
18 52 20 146 5 212 -44 190 -240 379 -412 397 -167 17 -848 -79 -1215 -172
-849 -214 -1488 -610 -2212 -1370 -135 -142 -241 -260 -714 -795 -229 -258
-558 -595 -727 -744 -720 -637 -1410 -920 -2174 -893 -513 19 -969 165 -1390
447 -203 136 -407 319 -567 510 -182 217 -378 561 -468 825 -201 588 -196
1227 15 1801 56 151 185 406 274 539 433 649 1078 1059 1851 1176 189 29 531
31 720 5 349 -47 685 -161 986 -333 l82 -47 7 -86 c14 -180 59 -283 166 -385
77 -72 184 -129 310 -165 70 -20 78 -21 112 -6 28 11 37 21 37 38 0 13 -5 29
-11 35 -6 6 -16 62 -22 124 -25 260 46 596 198 931 46 102 204 392 241 442 12
17 27 5 174 -133 667 -625 1340 -1044 2280 -1421 478 -192 731 -254 1035 -254
259 0 435 42 657 156 115 58 148 83 148 108 0 38 -90 36 -239 -5 -79 -22 -268
-29 -401 -16 -218 23 -481 89 -738 187 -494 188 -1225 628 -1797 1082 -147
117 -405 335 -405 342 0 3 128 22 285 43 919 122 1526 244 2110 427 684 213
1299 514 1690 826 186 149 267 264 296 421 34 181 -124 414 -400 591 -237 152
-665 276 -1126 328 -167 18 -705 27 -910 14z m635 -380 c400 -17 857 -70 1082
-126 197 -49 328 -130 313 -193 -24 -100 -231 -321 -437 -466 -814 -574 -2068
-951 -3583 -1079 -99 -9 -245 -19 -325 -22 l-144 -7 18 29 c162 251 556 742
886 1104 266 290 299 331 306 364 9 48 -4 65 -100 132 -46 32 -83 60 -82 61 2
2 77 19 167 38 433 90 876 146 1307 164 272 12 332 12 592 1z m294 -6670 c-23
-23 -239 -147 -349 -200 -181 -87 -352 -157 -765 -312 -302 -113 -531 -204
-667 -265 -7 -3 -13 0 -13 7 0 33 114 280 220 475 140 259 134 255 228 171
106 -95 153 -96 407 -11 215 73 375 109 610 138 70 9 339 7 329 -3z"/>
<path d="M9025 7390 c-174 -35 -365 -158 -580 -376 -198 -199 -343 -395 -455
-614 -195 -382 -198 -663 -11 -850 178 -178 449 -220 681 -104 54 27 101 65
207 167 96 93 134 125 129 107 -3 -14 -9 -63 -12 -110 -17 -253 112 -458 302
-477 116 -12 176 22 414 234 276 247 560 554 755 818 95 127 200 284 194 288
-7 5 -143 66 -155 69 -6 2 -56 -53 -111 -122 -133 -168 -329 -396 -432 -503
-126 -131 -403 -368 -415 -356 -6 6 28 191 54 289 68 264 181 542 463 1140
l116 245 -32 19 c-18 10 -61 38 -97 61 -82 54 -107 66 -147 75 -57 13 -118 -8
-201 -69 -42 -31 -90 -64 -105 -74 l-28 -18 -77 45 c-187 109 -320 143 -457
116z m411 -293 l27 -24 -17 -44 c-22 -55 -123 -230 -189 -329 -229 -341 -571
-702 -795 -840 -29 -18 -55 -30 -58 -28 -6 6 39 163 73 253 39 106 144 309
210 410 130 196 292 370 473 506 164 124 221 143 276 96z"/>
<path d="M16717 7216 c-70 -19 -143 -74 -264 -199 -367 -380 -721 -983 -945
-1612 -7 -22 -19 -40 -25 -40 -6 0 -96 -101 -199 -225 -299 -356 -499 -545
-697 -658 -95 -54 -107 -58 -107 -37 0 10 15 63 34 119 38 113 120 287 285
601 124 235 213 448 213 510 1 52 -21 94 -73 138 -126 109 -295 112 -410 9
-90 -81 -289 -405 -397 -648 -57 -127 -116 -299 -137 -399 -30 -140 -14 -312
37 -422 72 -154 315 -275 486 -244 36 7 88 24 116 38 74 37 339 302 634 633
l32 35 -46 -135 c-80 -240 -105 -352 -111 -486 -7 -145 6 -214 45 -245 15 -11
73 -44 131 -72 99 -50 107 -52 184 -52 l81 0 13 90 c20 143 40 215 129 462 46
128 86 244 90 258 3 14 10 27 14 30 4 3 40 -61 80 -143 138 -281 206 -361 344
-403 125 -39 206 -16 345 96 96 78 187 168 379 378 l137 149 12 -59 c16 -79
34 -118 87 -190 84 -114 223 -211 381 -264 59 -20 90 -24 200 -24 110 0 141 4
200 23 140 47 393 189 612 345 164 116 509 402 715 593 l58 53 -74 65 c-40 36
-79 66 -85 66 -14 0 -199 -135 -341 -250 -409 -329 -772 -549 -1065 -646 -134
-44 -229 -51 -265 -19 -38 33 -50 77 -50 178 0 154 29 274 103 422 21 44 40
81 41 82 1 2 65 -20 141 -48 165 -60 223 -71 306 -58 108 17 270 88 404 177
85 56 239 203 306 292 68 89 97 183 81 258 -22 103 -89 179 -287 325 -162 120
-310 177 -461 177 -173 0 -312 -77 -530 -294 -216 -216 -335 -427 -419 -739
-23 -84 -28 -93 -102 -175 -43 -48 -178 -189 -301 -314 -242 -245 -284 -276
-357 -262 -96 18 -177 112 -279 324 l-64 133 162 107 c237 159 355 258 606
509 184 184 470 498 470 515 0 5 -134 83 -196 114 l-41 21 -39 -52 c-170 -224
-396 -456 -573 -588 -96 -72 -344 -209 -377 -209 -16 0 -13 19 27 176 55 216
175 518 333 834 234 468 423 730 514 712 20 -5 14 52 -10 88 -45 66 -153 101
-241 76z m1677 -1343 c-11 -62 -42 -143 -76 -202 -74 -124 -237 -265 -368
-317 -63 -26 -170 -43 -170 -27 0 51 281 357 439 477 61 47 157 105 174 106 4
0 5 -17 1 -37z"/>
<path d="M15005 6802 c-113 -53 -190 -231 -202 -468 -6 -108 4 -159 36 -188
26 -23 216 -105 261 -112 34 -6 40 -3 62 27 26 35 146 252 207 373 81 164 48
240 -143 332 -110 53 -165 62 -221 36z"/>
</g>
</svg>
