<?xml version="1.0" encoding="utf-8"?>
<!-- Generator: Adobe Illustrator 25.2.1, SVG Export Plug-In . SVG Version: 6.00 Build 0)  -->
<svg version="1.1" id="Layer_1" xmlns="http://www.w3.org/2000/svg" xmlns:xlink="http://www.w3.org/1999/xlink" x="0px" y="0px"
	viewBox="0 0 357.3 168.8" style="enable-background:new 0 0 357.3 168.8;" xml:space="preserve">
<g  transform="translate(0.000000,438.000000) scale(0.100000,-0.100000)">
	<path fill="white" d="M1434,4368.8c-7.6-7.2-11.2-15.7-11.2-26.9s3.6-19.7,11.2-26.9c10.7-11.2,11.2-11.2,100.2-11.2c58.6,0,90.4-1.8,92.2-4.9
		c1.8-2.7,18.8-50.1,38.5-106.1l34.9-101.6l-10.3-11.2c-5.8-6.3-62.2-85.5-125.3-176.8c-63.5-90.8-116.4-165.6-118.1-165.1
		c-1.8,0-20.1,8.5-41.2,18.3c-71.6,34.9-144.5,50.6-234.5,50.6c-244.8,0-459.6-162.4-528.1-398.7c-14.8-51.5-20.6-96.7-20.6-161.1
		v-53.3h-298h-298l-13-13c-16.1-16.6-17-35.4-2.2-52.8l10.7-12.5l308.8-1.3l309.2-0.9l9.8-30.4c52.8-162.4,185.3-295.8,347.7-350
		c68.5-22.8,110.1-28.2,195.6-25.5c63.1,1.8,83.2,4,119.5,13.9c119,31.8,228.2,103.8,299.4,197.4c34,44.8,45.6,67.1,42.1,82.8
		c-5.4,24.6-34.5,38.5-56.4,26.9c-4.5-2.7-18.8-20.1-31.3-39.4c-13-18.8-39.4-50.1-58.6-69.4c-128-127.1-315.9-169.6-488.7-111
		c-127.1,43.4-230.9,141.4-282.8,266.7l-14.8,35.8l55.5,2.2c50.6,2.2,56.4,3.1,66.7,13c8.1,7.6,11.6,15.7,11.6,25.5
		c0,36.2-12.5,42.1-91.3,42.1h-60l-3.6,30c-1.8,17.9-0.9,50.6,2.2,78.3C714,3416,758.7,3510,838.8,3590.6
		c119.9,121.3,294.9,167.4,462.7,122.2c35.8-9.8,98.9-37.1,98.9-43c-0.4-1.8-22.8-35.8-50.6-75.2c-55.5-78.8-50.6-75.2-94.9-63.1
		c-33.6,9-94.9,9.4-129.8,0.4c-103.8-26.4-183.9-105.2-210.3-205.9c-8.5-34-8.5-104.3,0-138.7c13-50.6,36.2-90.8,75.6-129.8
		c58.2-57.7,118.1-82.8,198.7-82.8c97.6,0,180.3,43.9,235.4,124c20.6,30,42.5,83.7,43,103.4c0,12.1-21.5,11.6,323.1,4.5
		c252.8-4.9,258.7-4.9,268.1,3.6c5.4,4.5,150.4,178.1,322.7,385.8c172.3,207.2,314.6,376.8,316.4,376.8s11.2-32.7,20.6-72.5
		c31.3-133.8,98.9-355.3,120.8-396.9c4.9-9.8,3.1-13-29.1-45.2c-55.9-55.9-85-124.9-85-201.4c0-88.6,38-167.8,106.5-221.5
		c51.5-41.2,108.3-60.4,176.3-60.4c80.1,0,140.1,25.1,198.7,82.8c56.4,55.5,83.7,120.8,83.7,199.1c0,131.1-90.4,245.2-218.4,275.2
		c-35.4,8.5-96.7,8.5-129.3,0c-14.8-4-26.9-6.3-27.7-5.4c-8.1,8.1-65.8,180.8-63.1,188.4c1.3,3.6,21,10.7,44.3,16.6
		c34.9,8.5,52.8,10.3,113.2,10.3c62.2-0.4,77.4-1.8,115-12.1c145-38.5,258.2-130.2,321.8-260.5c53.3-109.2,63.5-243.9,27.7-358
		c-61.8-196-237.2-330.7-442.6-341c-140.1-6.7-269.4,43-368.3,142.3c-170.5,170.1-191.5,442.6-48.8,630.6
		c46.1,60.9,48.3,64,48.3,75.2c0,15.2-23.3,36.7-39.4,36.7c-17.9,0-34.5-14.8-67.6-58.2c-75.2-100.2-112.3-212.1-112.3-339.7
		c0-73.8,7.6-121.3,29.5-184.4c66.7-193.8,234.5-337.4,435.9-373.7c56.8-10.3,152.6-9.4,209,2.2c232.3,47.9,408.1,228.2,449.3,461.4
		c8.5,47.4,7.2,154.4-2.2,199.1c-17,79.2-46.1,149-89.1,212.6c-27.7,40.7-89.1,105.2-128.4,134.7c-68.5,51.5-158.9,90-246.1,105.2
		c-63.5,10.7-170.1,6.7-230-9c-24.6-6.3-45.2-11.2-45.6-10.3c-0.4,0.4-14.3,56.4-30.9,124c-39.8,165.6-41.6,170.1-59.5,180.3
		c-14.3,8.5-26,8.5-482.4,3.1c-273-3.6-469.4-4-471.2-1.8c-1.8,2.2-17.9,45.2-35.4,95.8c-17,50.6-32.7,95.3-34.5,99.8
		c-3.1,7.2,1.3,7.6,58.2,7.6c33.6,0,64.4,1.8,68.9,4.5c11.2,5.8,20.1,28.6,16.6,42.5c-1.3,5.8-7.2,15.2-12.5,20.1
		c-9.4,8.5-15.2,9-203.6,9h-194.2L1434,4368.8z M2632,4021.1c-4-5.4-115.5-139.6-470.8-568.3c-60.4-72.9-110.1-132-111-131.1
		c-3.1,3.1-241.2,694.1-239.4,695.9c2.2,2.2,321.3,6.3,634.1,8.1C2598,4026.5,2635.6,4025.1,2632,4021.1z M1827.4,3724.4
		c142.8-412.2,152.2-440.4,149.9-441.7c-0.9-0.9-57.7-0.9-125.8,0l-124,1.8l-2.7,20.6c-5.4,47-20.1,108.3-34.5,146.8
		c-16.1,43-48.3,102.9-64.9,120.8c-13.9,14.8-40.7,14.8-54.6,0c-16.6-17.5-13.9-35.8,10.3-74.3c11.2-18.3,26.9-49.7,34.5-69.4
		c14.3-36.2,30.9-105.6,30.9-129.3v-13l-85.5,2.2c-46.5,1.3-85.9,3.6-87.3,4.9c-1.3,1.3-5.4,14.8-9,30
		c-9.4,41.6-39.4,95.3-71.2,128.4l-27.7,29.1l176.3,253.3c97.1,139.6,179,256.4,181.2,259.6c2.7,3.1,6.3,4,8.1,2.2
		C1733.4,3994.7,1776.4,3872.1,1827.4,3724.4z M1272.5,3441.1c40.3-18.8,64.4-38.9,85.5-70.7c70.3-106.1,29.5-248.4-85.9-299.8
		c-120.8-54.1-261.3,23.3-283.7,156.2c-15.7,93.1,42.5,188.4,136,222.4c18.3,7.2,33.1,8.5,70.3,7.6
		C1237.1,3455.9,1244.7,3454.1,1272.5,3441.1z M3073.3,3448.7c70.3-23.7,122.2-85.5,135.6-161.6c23.3-129.8-99.3-252.8-230.5-231.8
		c-102.5,16.1-172.7,98.5-172.7,201.4c0,92.6,55,166.5,145.4,195.1C2980.2,3461.2,3041.1,3459.5,3073.3,3448.7z"/>
	<path fill="white" d="M937.3,4342c-7.6-7.2-11.2-15.7-11.2-26.9c0-11.2,3.6-19.7,11.2-26.9l10.7-11.2h131.1c144.5,0,147.7,0.4,153.5,27.3
		c4,17.5-4.5,37.1-18.3,43.9c-7.6,3.1-53.3,4.9-138.7,4.9H948L937.3,4342z"/>
	<path fill="white" d="M2722,4345.1c-39.8-1.3-41.6-1.8-52.4-14.8c-12.5-14.8-14.3-26.4-6.3-41.2c10.7-20.1,13.4-20.6,138.7-21
		c141.4,0,151.7-2.2,195.6-43c49.2-45.2,64.4-104.3,43.9-168.7c-9-28.2-10.3-37.6-6.7-48.3c9-25.5,45.6-33.1,63.5-13.4
		c22.4,24.6,35.8,111.4,25.5,162.4c-12.1,57.3-55,120.4-103.8,151.7c-12.5,7.6-35.8,19.7-52.4,26c-28.6,10.7-34.5,11.2-117.2,11.6
		C2802.5,4346.4,2744.8,4346,2722,4345.1z"/>
	<path fill="white" d="M732.8,4094.9c-22.4-3.6-36.7-33.1-27.7-57.3c8.1-20.1,9.4-20.1,344.1-20.1h316.4l13,13c21.5,21.5,16.1,49.7-11.6,61.3
		c-13,5.4-66.2,6.3-318.6,5.8C881.4,4097.2,739.5,4095.8,732.8,4094.9z"/>
	<path fill="white" d="M254.8,3441.6c-15.2-5.4-26.9-21-26.9-35.4c0-39.4,8.1-42.1,133.4-42.1c96.2,0,103.4,0.4,114.1,9
		c23.7,18.8,17.5,56.8-10.7,66.7C450,3444.7,267.8,3446.5,254.8,3441.6z"/>
</g>
</svg>
